<svg xmlns="http://www.w3.org/2000/svg" width="28.444" height="16" viewBox="0 0 28.444 16">
  <path id="Queue-595b40b85ba036ed117dc3b1" d="M8,3a4.428,4.428,0,0,0-2.122,8.323A7.994,7.994,0,0,0,0,19H1.778a6.222,6.222,0,1,1,12.444,0H16a7.923,7.923,0,0,0-1.573-4.715,3.549,3.549,0,0,1,6.906,1.16h1.778V13.667a1.778,1.778,0,1,1,3.556,0h1.778a3.569,3.569,0,0,0-3.556-3.556,3.366,3.366,0,0,0-3.035,2.306,6.31,6.31,0,0,0-1.608-1.538,3.557,3.557,0,1,0-5.038-.1,5.342,5.342,0,0,0-2.1,2.125,7.945,7.945,0,0,0-2.99-1.576A4.428,4.428,0,0,0,8,3Zm16.889,7.111a1.778,1.778,0,1,0-1.778-1.778A1.778,1.778,0,0,0,24.889,10.111ZM8,4.778A2.667,2.667,0,1,1,5.333,7.444,2.653,2.653,0,0,1,8,4.778Zm9.778,1.778A1.778,1.778,0,1,1,16,8.333,1.764,1.764,0,0,1,17.778,6.556Z" transform="translate(0 -3)" fill="#fff"/>
</svg>
